<?xml version="1.0" encoding="UTF-8"?>
<svg id="Layer_1" xmlns="http://www.w3.org/2000/svg" xmlns:xlink="http://www.w3.org/1999/xlink" version="1.1" viewBox="0 0 883 797">
  <!-- Generator: Adobe Illustrator 30.1.0, SVG Export Plug-In . SVG Version: 2.1.1 Build 136)  -->
  <defs>
    <style>
      .st0 {
        fill: url(#linear-gradient2);
      }

      .st1 {
        fill: url(#linear-gradient1);
      }

      .st2 {
        fill: url(#linear-gradient3);
      }

      .st3 {
        fill: url(#linear-gradient6);
      }

      .st4 {
        fill: url(#linear-gradient7);
      }

      .st5 {
        fill: url(#linear-gradient5);
      }

      .st6 {
        fill: url(#linear-gradient4);
      }

      .st7 {
        fill: #d39e2d;
      }

      .st8 {
        fill: url(#linear-gradient);
      }

      .st9 {
        fill: #f0bb25;
      }

      .st10 {
        fill: #2e2e2e;
      }
    </style>
    <linearGradient id="linear-gradient" x1="517.99" y1="331.01" x2="549.68" y2="331.01" gradientUnits="userSpaceOnUse">
      <stop offset="0" stop-color="#363636"/>
      <stop offset="1" stop-color="#3c3b3c"/>
    </linearGradient>
    <linearGradient id="linear-gradient1" x1="358.42" y1="267.36" x2="449.45" y2="224.56" gradientUnits="userSpaceOnUse">
      <stop offset="0" stop-color="#313131"/>
      <stop offset="1" stop-color="#3c3c3c"/>
    </linearGradient>
    <linearGradient id="linear-gradient2" x1="332.56" y1="340.86" x2="344.06" y2="340.86" gradientUnits="userSpaceOnUse">
      <stop offset="0" stop-color="#2c2c2c"/>
      <stop offset="1" stop-color="#373737"/>
    </linearGradient>
    <linearGradient id="linear-gradient3" x1="413.8" y1="145.03" x2="629.27" y2="300.43" gradientUnits="userSpaceOnUse">
      <stop offset="0" stop-color="#2e2e2e"/>
      <stop offset=".57" stop-color="#3c3c3c"/>
    </linearGradient>
    <linearGradient id="linear-gradient4" x1="295.25" y1="501.5" x2="644.26" y2="304.54" gradientUnits="userSpaceOnUse">
      <stop offset=".05" stop-color="#2f2f2f"/>
      <stop offset="1" stop-color="#3f3e3f"/>
    </linearGradient>
    <linearGradient id="linear-gradient5" x1="444.53" y1="370.27" x2="550.07" y2="229.55" gradientUnits="userSpaceOnUse">
      <stop offset="0" stop-color="#2c2c2c"/>
      <stop offset="1" stop-color="#414141"/>
    </linearGradient>
    <linearGradient id="linear-gradient6" x1="343.25" y1="417.05" x2="358.34" y2="364.03" gradientUnits="userSpaceOnUse">
      <stop offset="0" stop-color="#2c2c2c"/>
      <stop offset="1" stop-color="#373737"/>
    </linearGradient>
    <linearGradient id="linear-gradient7" x1="238.66" y1="262.7" x2="312.04" y2="228.21" gradientTransform="translate(545.65) rotate(-180) scale(1 -1)" xlink:href="#linear-gradient1"/>
  </defs>
  <rect class="st9" x="445.83" y="630.49" width="240.05" height="42.85"/>
  <g>
    <path class="st10" d="M448.58,663.73v-21.41h4.26l5.07,15.16c.47,1.41.81,2.47,1.02,3.17.24-.78.62-1.92,1.14-3.43l5.13-14.9h3.81v21.41h-2.73v-17.92l-6.22,17.92h-2.56l-6.19-18.23v18.23h-2.73Z"/>
    <path class="st10" d="M490.93,642.32h2.83v12.37c0,2.15-.24,3.86-.73,5.13-.49,1.27-1.36,2.3-2.64,3.09-1.27.79-2.94,1.19-5,1.19s-3.65-.35-4.92-1.04c-1.28-.69-2.19-1.69-2.73-3-.55-1.31-.82-3.1-.82-5.37v-12.37h2.83v12.36c0,1.86.17,3.23.52,4.11s.94,1.56,1.78,2.04c.84.48,1.87.72,3.09.72,2.08,0,3.57-.47,4.46-1.42.89-.94,1.33-2.76,1.33-5.45v-12.36ZM481.2,641v-2.99h2.75v2.99h-2.75ZM486.65,641v-2.99h2.75v2.99h-2.75Z"/>
    <path class="st10" d="M501.86,663.73v-21.41h2.83v8.79h11.13v-8.79h2.83v21.41h-2.83v-10.09h-11.13v10.09h-2.83Z"/>
    <path class="st10" d="M526.73,663.73v-21.41h15.48v2.53h-12.65v6.56h11.85v2.51h-11.85v7.29h13.15v2.53h-15.98Z"/>
    <path class="st10" d="M549.88,663.73v-21.41h2.91l11.25,16.81v-16.81h2.72v21.41h-2.91l-11.25-16.83v16.83h-2.72Z"/>
    <path class="st10" d="M574.8,663.73v-21.41h7.38c1.67,0,2.94.1,3.81.31,1.23.28,2.27.79,3.14,1.53,1.13.95,1.97,2.17,2.53,3.66s.84,3.18.84,5.09c0,1.63-.19,3.07-.57,4.32-.38,1.26-.87,2.3-1.46,3.12s-1.24,1.47-1.95,1.94c-.71.47-1.56.83-2.56,1.07-1,.24-2.14.36-3.44.36h-7.73ZM577.64,661.21h4.57c1.41,0,2.52-.13,3.32-.39.8-.26,1.44-.63,1.92-1.11.67-.67,1.2-1.57,1.57-2.71.37-1.13.56-2.51.56-4.13,0-2.24-.37-3.96-1.1-5.16s-1.63-2.01-2.68-2.42c-.76-.29-1.98-.44-3.67-.44h-4.5v16.36Z"/>
    <path class="st10" d="M599.98,641v-3.27h3.26v3.27h-3.26ZM600.18,663.73v-21.41h2.83v21.41h-2.83Z"/>
    <path class="st10" d="M610.34,656.85l2.67-.23c.13,1.07.42,1.95.88,2.64.46.69,1.18,1.24,2.15,1.67.97.42,2.07.64,3.29.64,1.08,0,2.04-.16,2.86-.48.83-.32,1.44-.76,1.85-1.32.4-.56.61-1.17.61-1.83s-.2-1.26-.58-1.76-1.03-.92-1.93-1.26c-.57-.22-1.85-.57-3.81-1.04-1.97-.47-3.35-.92-4.13-1.34-1.02-.54-1.78-1.2-2.29-1.99-.5-.79-.75-1.68-.75-2.67,0-1.08.31-2.09.92-3.03.61-.94,1.51-1.65,2.69-2.14s2.49-.73,3.93-.73c1.59,0,2.99.26,4.2.77,1.21.51,2.14,1.26,2.8,2.26.65.99,1,2.12,1.05,3.37l-2.72.2c-.15-1.35-.64-2.38-1.48-3.07s-2.09-1.04-3.73-1.04-2.96.31-3.75.94c-.78.63-1.18,1.39-1.18,2.27,0,.77.28,1.4.83,1.9.55.5,1.97,1.01,4.27,1.53,2.3.52,3.88.98,4.74,1.37,1.25.57,2.17,1.3,2.76,2.18.59.88.89,1.9.89,3.04s-.33,2.21-.98,3.22-1.59,1.79-2.81,2.35c-1.22.56-2.6.84-4.13.84-1.94,0-3.56-.28-4.87-.85-1.31-.57-2.34-1.41-3.08-2.55-.75-1.13-1.14-2.42-1.18-3.85Z"/>
    <path class="st10" d="M634.43,663.73v-21.41h2.83v18.89h10.55v2.53h-13.38Z"/>
    <path class="st10" d="M654.75,641v-3.27h3.26v3.27h-3.26ZM654.95,663.73v-21.41h2.83v21.41h-2.83Z"/>
    <path class="st10" d="M665.96,663.73v-21.41h2.83v10.62l10.63-10.62h3.84l-8.98,8.68,9.38,12.74h-3.74l-7.62-10.84-3.51,3.42v7.42h-2.83Z"/>
  </g>
  <g>
    <path class="st8" d="M518.06,312.14c13.14.02,26.29.05,39.43.07-2.11,6.48-4.61,13.34-7.56,20.49-2.53,6.12-5.15,11.85-7.78,17.17h-24.16c.02-12.58.04-25.15.07-37.73Z"/>
    <path class="st1" d="M391.82,215.5c19.22.05,38.45.1,57.67.15-15.69,22.39-31.37,44.78-47.06,67.17-15.88-.02-31.76-.04-47.64-.06,2.65-11.1,5.29-22.21,7.94-33.31,9.7-11.32,19.39-22.63,29.09-33.95Z"/>
    <path class="st0" d="M332.56,328.89h11.5c-3.79,7.99-7.59,15.97-11.38,23.96-.04-7.99-.08-15.97-.12-23.96Z"/>
    <polygon class="st9" points="372.16 178.03 284.04 328.31 330.59 328.37 284.43 451.51 397.39 289.98 345.74 289.98 372.16 178.03"/>
    <path class="st2" d="M611.24,231.67c-1.26-18.18-4.76-28.14-6.4-32.44-1.64-4.29-11.24-28.54-33.43-46.8-49.72-40.9-122.9-19.02-138.36-14.4-41.35,12.36-69.99,36.41-87.01,54.25,35.11-24.51,67.07-34.69,87.01-39.33,32.25-7.51,51.12-4.74,57.61-3.6,9.91,1.75,28.11,5.18,45.96,19.19,17.69,13.88,25.35,30.56,28.62,37.91,13.42,30.14,9.08,58.15,5.66,80.24-2.34,15.07-7.58,37.71-20.67,63.25,13.58-.17,27.15-.33,40.73-.5,10.93-27.27,16.18-51.61,18.65-71.12,1.98,1.3,3.91,2.62,5.74,3.96,3.16-7.44,6.42-14.95,9.76-22.51,2.34-5.3,4.69-10.54,7.05-15.73-5.29-3.89-12.28-8.35-20.91-12.34Z"/>
    <path class="st7" d="M371.73,179.04c-29.23,49.76-58.46,99.52-87.69,149.27,14.97.1,29.95.19,44.92.29-14.63,40.57-29.25,81.14-43.88,121.71l70.47-140.3h-40.12l56.31-130.97Z"/>
    <path class="st6" d="M646.05,312.27c-26.95,0-53.89.02-80.84.02-1.51,5.18-3.33,10.67-5.52,16.41-3,7.86-6.24,14.94-9.47,21.22l57.16-.74c-21.09,50.27-84.36,42.12-84.36,42.12l-21.34,24.02c-9.23,9.46-17.96,17.32-25.64,23.73-14.72,12.27-32.41,26.81-59.23,39.18-16.91,7.8-35.91,16.55-62.64,18.1-12.94.75-43.98,2.12-74.89-16.98-16.69-10.31-27.25-22.83-33.12-30.95,4.82,11.2,17.91,37.23,46.76,53.78,20.64,11.83,39.67,13.26,54.29,14.2,52.09,3.33,92.36-18.57,113.87-30.63,17.76-9.95,43.93-27.39,69.51-56.66,133.78-8.69,115.47-116.82,115.47-116.82Z"/>
    <path class="st5" d="M513.84,389.18c-35.64-14.11-54.44-51.47-46.1-83.72,9.76-37.74,55.13-62.46,97.79-46.34.75-5.6,1.19-12.96.24-21.49-.84-7.56-2.55-13.95-4.24-18.9-59.2-15.18-118.67,19.69-133.75,73.81-13.34,47.88,10.63,101.61,58.58,125.48,4.74-3.67,10.02-8.28,15.39-13.98,4.9-5.21,8.88-10.28,12.09-14.86Z"/>
    <path class="st3" d="M319.17,414.61c.39.66,1.03,1.48,2.05,2.05.14.08.28.15.42.21-.82-.75-1.65-1.51-2.47-2.26-.17,3.69-.35,7.39-.52,11.08h46.9l-3.55-.94c1.26.34,2.46.65,3.55.94-.4-25.25-.8-50.51-1.2-75.76-15.06,21.56-30.12,43.12-45.19,64.67ZM358.15,423.72c.96.26,1.89.5,2.79.74l-2.79-.74ZM324.81,414.84c1.01.27,2.13.57,3.32.89l-3.32-.89ZM331.85,416.72c.87.23,1.76.47,2.68.71l-2.68-.71ZM336.16,417.86c3.58.95,7.42,1.98,11.21,2.99l-11.21-2.99ZM354.39,422.72c.99.26,1.95.52,2.9.77l-2.9-.77Z"/>
    <path class="st4" d="M294.04,215.53c-19.31.04-38.62.08-57.93.13,18.93,27.17,37.86,54.35,56.79,81.52,5.38-8.36,10.77-16.98,16.16-25.87,4.51-7.44,8.84-14.79,13.02-22.05-9.35-11.24-18.69-22.49-28.04-33.73Z"/>
  </g>
  <g>
    <path class="st10" d="M199.18,575.99h13.2l7.75,12.97,7.76-12.97h13.13l-14.95,22.35v16.11h-11.91v-16.11l-14.98-22.35Z"/>
    <path class="st10" d="M242.63,575.99h11.91v38.46h-11.91v-38.46Z"/>
    <path class="st10" d="M260.38,575.99h11.88v28.99h18.55v9.47h-30.43v-38.46Z"/>
    <path class="st10" d="M293.68,575.99h17.65c3.48,0,6.29.47,8.43,1.42,2.14.94,3.91,2.3,5.31,4.07,1.4,1.77,2.41,3.82,3.04,6.16.63,2.34.94,4.83.94,7.45,0,4.11-.47,7.3-1.4,9.56s-2.23,4.16-3.9,5.69c-1.66,1.53-3.45,2.55-5.35,3.06-2.61.7-4.97,1.05-7.08,1.05h-17.65v-38.46ZM305.57,584.7v21.01h2.91c2.48,0,4.25-.28,5.3-.83s1.87-1.51,2.47-2.89c.59-1.37.89-3.6.89-6.68,0-4.08-.67-6.86-1.99-8.37-1.33-1.5-3.53-2.26-6.61-2.26h-2.96Z"/>
    <path class="st10" d="M333.1,575.99h11.91v38.46h-11.91v-38.46Z"/>
    <path class="st10" d="M349.88,575.99h33.63v7.69l-21.59,22.51h22.37v8.26h-36.49v-7.97l21.36-22.27h-19.29v-8.21Z"/>
    <path class="st10" d="M402.17,575.99h31.85v8.21h-19.94v6.11h18.49v7.84h-18.49v7.58h20.51v8.71h-32.42v-38.46Z"/>
    <path class="st10" d="M438.3,575.99h11.88v28.99h18.55v9.47h-30.43v-38.46Z"/>
    <path class="st10" d="M471.42,575.99h31.85v8.21h-19.94v6.11h18.49v7.84h-18.49v7.58h20.51v8.71h-32.42v-38.46Z"/>
    <path class="st10" d="M507.61,575.99h11.88v14.53l12.45-14.53h15.8l-14.03,14.52,14.66,23.94h-14.63l-8.11-15.82-6.14,6.43v9.38h-11.88v-38.46Z"/>
    <path class="st10" d="M546.92,575.99h36.12v9.5h-12.12v28.96h-11.88v-28.96h-12.12v-9.5Z"/>
    <path class="st10" d="M585.89,614.45v-38.46h19.81c3.67,0,6.48.31,8.42.94,1.94.63,3.51,1.8,4.7,3.5,1.19,1.71,1.78,3.78,1.78,6.23,0,2.13-.45,3.97-1.36,5.52s-2.16,2.8-3.75,3.76c-1.01.61-2.41,1.12-4.17,1.52,1.42.47,2.45.95,3.09,1.42.44.32,1.07.99,1.9,2.02.83,1.03,1.38,1.83,1.66,2.39l5.75,11.14h-13.43l-6.35-11.75c-.8-1.52-1.52-2.51-2.15-2.96-.86-.59-1.83-.89-2.91-.89h-1.05v15.61h-11.94ZM597.83,591.57h5.01c.54,0,1.59-.17,3.15-.53.79-.16,1.43-.56,1.93-1.21.5-.65.75-1.39.75-2.23,0-1.24-.39-2.19-1.18-2.86-.79-.67-2.27-1-4.43-1h-5.22v7.82Z"/>
    <path class="st10" d="M625.31,575.99h11.91v38.46h-11.91v-38.46ZM627.23,565.79h8.24v7.87h-8.24v-7.87Z"/>
    <path class="st10" d="M643.11,575.99h11.88v14.53l12.45-14.53h15.8l-14.03,14.52,14.66,23.94h-14.63l-8.11-15.82-6.14,6.43v9.38h-11.88v-38.46Z"/>
  </g>
</svg>