<?xml version="1.0" encoding="UTF-8"?>
<svg id="Layer_1" xmlns="http://www.w3.org/2000/svg" xmlns:xlink="http://www.w3.org/1999/xlink" version="1.1" viewBox="0 0 883 797">
  <!-- Generator: Adobe Illustrator 30.1.0, SVG Export Plug-In . SVG Version: 2.1.1 Build 136)  -->
  <defs>
    <style>
      .st0 {
        fill: url(#linear-gradient1);
      }

      .st1 {
        fill: #d39e2d;
      }

      .st2 {
        fill: url(#linear-gradient);
      }

      .st3 {
        fill: #f0bb25;
      }

      .st4 {
        fill: #fff;
      }
    </style>
    <linearGradient id="linear-gradient" x1="332.56" y1="340.86" x2="344.06" y2="340.86" gradientUnits="userSpaceOnUse">
      <stop offset="0" stop-color="#2c2c2c"/>
      <stop offset="1" stop-color="#373737"/>
    </linearGradient>
    <linearGradient id="linear-gradient1" x1="1090.23" y1="415.31" x2="1100.69" y2="415.31" xlink:href="#linear-gradient"/>
  </defs>
  <rect class="st3" x="445.83" y="630.49" width="240.05" height="42.85"/>
  <g>
    <path class="st4" d="M448.58,663.73v-21.41h4.26l5.07,15.16c.47,1.41.81,2.47,1.02,3.17.24-.78.62-1.92,1.14-3.43l5.13-14.9h3.81v21.41h-2.73v-17.92l-6.22,17.92h-2.56l-6.19-18.23v18.23h-2.73Z"/>
    <path class="st4" d="M490.93,642.32h2.83v12.37c0,2.15-.24,3.86-.73,5.13-.49,1.27-1.36,2.3-2.64,3.09-1.27.79-2.94,1.19-5,1.19s-3.65-.35-4.92-1.04c-1.28-.69-2.19-1.69-2.73-3-.55-1.31-.82-3.1-.82-5.37v-12.37h2.83v12.36c0,1.86.17,3.23.52,4.11s.94,1.56,1.78,2.04c.84.48,1.87.72,3.09.72,2.08,0,3.57-.47,4.46-1.42.89-.94,1.33-2.76,1.33-5.45v-12.36ZM481.2,641v-2.99h2.75v2.99h-2.75ZM486.65,641v-2.99h2.75v2.99h-2.75Z"/>
    <path class="st4" d="M501.86,663.73v-21.41h2.83v8.79h11.13v-8.79h2.83v21.41h-2.83v-10.09h-11.13v10.09h-2.83Z"/>
    <path class="st4" d="M526.73,663.73v-21.41h15.48v2.53h-12.65v6.56h11.85v2.51h-11.85v7.29h13.15v2.53h-15.98Z"/>
    <path class="st4" d="M549.88,663.73v-21.41h2.91l11.25,16.81v-16.81h2.72v21.41h-2.91l-11.25-16.83v16.83h-2.72Z"/>
    <path class="st4" d="M574.8,663.73v-21.41h7.38c1.67,0,2.94.1,3.81.31,1.23.28,2.27.79,3.14,1.53,1.13.95,1.97,2.17,2.53,3.66s.84,3.18.84,5.09c0,1.63-.19,3.07-.57,4.32-.38,1.26-.87,2.3-1.46,3.12s-1.24,1.47-1.95,1.94c-.71.47-1.56.83-2.56,1.07-1,.24-2.14.36-3.44.36h-7.73ZM577.64,661.21h4.57c1.41,0,2.52-.13,3.32-.39.8-.26,1.44-.63,1.92-1.11.67-.67,1.2-1.57,1.57-2.71.37-1.13.56-2.51.56-4.13,0-2.24-.37-3.96-1.1-5.16s-1.63-2.01-2.68-2.42c-.76-.29-1.98-.44-3.67-.44h-4.5v16.36Z"/>
    <path class="st4" d="M599.98,641v-3.27h3.26v3.27h-3.26ZM600.18,663.73v-21.41h2.83v21.41h-2.83Z"/>
    <path class="st4" d="M610.34,656.85l2.67-.23c.13,1.07.42,1.95.88,2.64.46.69,1.18,1.24,2.15,1.67.97.42,2.07.64,3.29.64,1.08,0,2.04-.16,2.86-.48.83-.32,1.44-.76,1.85-1.32.4-.56.61-1.17.61-1.83s-.2-1.26-.58-1.76-1.03-.92-1.93-1.26c-.57-.22-1.85-.57-3.81-1.04-1.97-.47-3.35-.92-4.13-1.34-1.02-.54-1.78-1.2-2.29-1.99-.5-.79-.75-1.68-.75-2.67,0-1.08.31-2.09.92-3.03.61-.94,1.51-1.65,2.69-2.14s2.49-.73,3.93-.73c1.59,0,2.99.26,4.2.77,1.21.51,2.14,1.26,2.8,2.26.65.99,1,2.12,1.05,3.37l-2.72.2c-.15-1.35-.64-2.38-1.48-3.07s-2.09-1.04-3.73-1.04-2.96.31-3.75.94c-.78.63-1.18,1.39-1.18,2.27,0,.77.28,1.4.83,1.9.55.5,1.97,1.01,4.27,1.53,2.3.52,3.88.98,4.74,1.37,1.25.57,2.17,1.3,2.76,2.18.59.88.89,1.9.89,3.04s-.33,2.21-.98,3.22-1.59,1.79-2.81,2.35c-1.22.56-2.6.84-4.13.84-1.94,0-3.56-.28-4.87-.85-1.31-.57-2.34-1.41-3.08-2.55-.75-1.13-1.14-2.42-1.18-3.85Z"/>
    <path class="st4" d="M634.43,663.73v-21.41h2.83v18.89h10.55v2.53h-13.38Z"/>
    <path class="st4" d="M654.75,641v-3.27h3.26v3.27h-3.26ZM654.95,663.73v-21.41h2.83v21.41h-2.83Z"/>
    <path class="st4" d="M665.96,663.73v-21.41h2.83v10.62l10.63-10.62h3.84l-8.98,8.68,9.38,12.74h-3.74l-7.62-10.84-3.51,3.42v7.42h-2.83Z"/>
  </g>
  <path class="st4" d="M518.06,312.14c13.14.02,26.29.05,39.43.07-2.11,6.48-4.61,13.34-7.56,20.49-2.53,6.12-5.15,11.85-7.78,17.17h-24.16c.02-12.58.04-25.15.07-37.73Z"/>
  <path class="st4" d="M391.82,215.5c19.22.05,38.45.1,57.67.15-15.69,22.39-31.37,44.78-47.06,67.17-15.88-.02-31.76-.04-47.64-.06,2.65-11.1,5.29-22.21,7.94-33.31,9.7-11.32,19.39-22.63,29.09-33.95Z"/>
  <path class="st2" d="M332.56,328.89h11.5c-3.79,7.99-7.59,15.97-11.38,23.96-.04-7.99-.08-15.97-.12-23.96Z"/>
  <polygon class="st3" points="372.16 178.03 284.04 328.31 330.59 328.37 284.43 451.51 397.39 289.98 345.74 289.98 372.16 178.03"/>
  <path class="st4" d="M611.24,231.67c-1.26-18.18-4.76-28.14-6.4-32.44-1.64-4.29-11.24-28.54-33.43-46.8-49.72-40.9-122.9-19.02-138.36-14.4-41.35,12.36-69.99,36.41-87.01,54.25,35.11-24.51,67.07-34.69,87.01-39.33,32.25-7.51,51.12-4.74,57.61-3.6,9.91,1.75,28.11,5.18,45.96,19.19,17.69,13.88,25.35,30.56,28.62,37.91,13.42,30.14,9.08,58.15,5.66,80.24-2.34,15.07-7.58,37.71-20.67,63.25,13.58-.17,27.15-.33,40.73-.5,10.93-27.27,16.18-51.61,18.65-71.12,1.98,1.3,3.91,2.62,5.74,3.96,3.16-7.44,6.42-14.95,9.76-22.51,2.34-5.3,4.69-10.54,7.05-15.73-5.29-3.89-12.28-8.35-20.91-12.34Z"/>
  <path class="st1" d="M371.73,179.04c-29.23,49.76-58.46,99.52-87.69,149.27,14.97.1,29.95.19,44.92.29-14.63,40.57-29.25,81.14-43.88,121.71l70.47-140.3h-40.12l56.31-130.97Z"/>
  <path class="st4" d="M646.05,312.27c-26.95,0-53.89.02-80.84.02-1.51,5.18-3.33,10.67-5.52,16.41-3,7.86-6.24,14.94-9.47,21.22l57.16-.74c-21.09,50.27-84.36,42.12-84.36,42.12l-21.34,24.02c-9.23,9.46-17.96,17.32-25.64,23.73-14.72,12.27-32.41,26.81-59.23,39.18-16.91,7.8-35.91,16.55-62.64,18.1-12.94.75-43.98,2.12-74.89-16.98-16.69-10.31-27.25-22.83-33.12-30.95,4.82,11.2,17.91,37.23,46.76,53.78,20.64,11.83,39.67,13.26,54.29,14.2,52.09,3.33,92.36-18.57,113.87-30.63,17.76-9.95,43.93-27.39,69.51-56.66,133.78-8.69,115.47-116.82,115.47-116.82Z"/>
  <path class="st4" d="M513.84,389.18c-35.64-14.11-54.44-51.47-46.1-83.72,9.76-37.74,55.13-62.46,97.79-46.34.75-5.6,1.19-12.96.24-21.49-.84-7.56-2.55-13.95-4.24-18.9-59.2-15.18-118.67,19.69-133.75,73.81-13.34,47.88,10.63,101.61,58.58,125.48,4.74-3.67,10.02-8.28,15.39-13.98,4.9-5.21,8.88-10.28,12.09-14.86Z"/>
  <path class="st4" d="M319.17,414.61c.39.66,1.03,1.48,2.05,2.05.14.08.28.15.42.21-.82-.75-1.65-1.51-2.47-2.26-.17,3.69-.35,7.39-.52,11.08h46.9l-3.55-.94c1.26.34,2.46.65,3.55.94-.4-25.25-.8-50.51-1.2-75.76-15.06,21.56-30.12,43.12-45.19,64.67ZM358.15,423.72c.96.26,1.89.5,2.79.74l-2.79-.74ZM324.81,414.84c1.01.27,2.13.57,3.32.89l-3.32-.89ZM331.85,416.72c.87.23,1.76.47,2.68.71l-2.68-.71ZM336.16,417.86c3.58.95,7.42,1.98,11.21,2.99l-11.21-2.99ZM354.39,422.72c.99.26,1.95.52,2.9.77l-2.9-.77Z"/>
  <path class="st4" d="M294.04,215.53c-19.31.04-38.62.08-57.93.13,18.93,27.17,37.86,54.35,56.79,81.52,5.38-8.36,10.77-16.98,16.16-25.87,4.51-7.44,8.84-14.79,13.02-22.05-9.35-11.24-18.69-22.49-28.04-33.73Z"/>
  <rect class="st3" x="1415.58" y="441.11" width="270.88" height="48.71"/>
  <g>
    <path class="st4" d="M1418.68,478.89v-24.34h4.81l5.72,17.24c.53,1.61.91,2.81,1.15,3.6.27-.89.7-2.19,1.29-3.9l5.79-16.94h4.3v24.34h-3.08v-20.38l-7.02,20.38h-2.88l-6.99-20.72v20.72h-3.08Z"/>
    <path class="st4" d="M1466.47,454.55h3.2v14.07c0,2.45-.27,4.39-.82,5.83s-1.54,2.61-2.97,3.51c-1.43.9-3.32,1.35-5.65,1.35s-4.12-.39-5.55-1.18-2.47-1.92-3.08-3.41c-.62-1.49-.92-3.52-.92-6.1v-14.07h3.2v14.05c0,2.12.19,3.67.58,4.67.39,1,1.06,1.77,2.01,2.32.95.54,2.11.81,3.49.81,2.35,0,4.03-.54,5.03-1.61s1.5-3.14,1.5-6.19v-14.05ZM1455.49,453.06v-3.4h3.1v3.4h-3.1ZM1461.64,453.06v-3.4h3.1v3.4h-3.1Z"/>
    <path class="st4" d="M1478.8,478.89v-24.34h3.2v10h12.56v-10h3.2v24.34h-3.2v-11.47h-12.56v11.47h-3.2Z"/>
    <path class="st4" d="M1506.86,478.89v-24.34h17.47v2.87h-14.27v7.46h13.37v2.86h-13.37v8.29h14.83v2.87h-18.03Z"/>
    <path class="st4" d="M1532.99,478.89v-24.34h3.28l12.69,19.11v-19.11h3.07v24.34h-3.28l-12.69-19.13v19.13h-3.07Z"/>
    <path class="st4" d="M1561.12,478.89v-24.34h8.32c1.88,0,3.31.12,4.3.35,1.38.32,2.57.9,3.54,1.74,1.28,1.08,2.23,2.47,2.86,4.16.63,1.69.95,3.62.95,5.79,0,1.85-.21,3.49-.64,4.92s-.98,2.61-1.65,3.54c-.67.94-1.4,1.67-2.2,2.21s-1.76.94-2.88,1.22c-1.13.28-2.42.42-3.88.42h-8.72ZM1564.31,476.02h5.16c1.59,0,2.84-.15,3.75-.45s1.63-.72,2.17-1.26c.76-.76,1.35-1.79,1.77-3.08.42-1.29.63-2.85.63-4.69,0-2.55-.42-4.5-1.25-5.87-.83-1.37-1.84-2.28-3.02-2.75-.86-.33-2.24-.5-4.14-.5h-5.08v18.6Z"/>
    <path class="st4" d="M1589.52,453.06v-3.72h3.68v3.72h-3.68ZM1589.75,478.89v-24.34h3.2v24.34h-3.2Z"/>
    <path class="st4" d="M1601.21,471.07l3.02-.27c.14,1.22.47,2.22,1,3,.52.78,1.33,1.41,2.43,1.89s2.33.72,3.71.72c1.22,0,2.3-.18,3.23-.55.93-.37,1.63-.87,2.08-1.5.46-.64.68-1.33.68-2.08s-.22-1.43-.66-2-1.16-1.05-2.17-1.44c-.65-.25-2.08-.65-4.3-1.19-2.22-.54-3.77-1.04-4.66-1.52-1.15-.61-2.01-1.36-2.58-2.27-.57-.9-.85-1.91-.85-3.03,0-1.23.35-2.38,1.04-3.45s1.7-1.88,3.03-2.43c1.33-.55,2.81-.83,4.43-.83,1.79,0,3.37.29,4.74.87s2.42,1.44,3.16,2.57c.74,1.13,1.13,2.41,1.19,3.84l-3.07.23c-.17-1.54-.72-2.7-1.67-3.49-.95-.79-2.35-1.18-4.21-1.18s-3.34.36-4.23,1.07-1.33,1.58-1.33,2.58c0,.88.31,1.59.94,2.16.62.56,2.22,1.14,4.82,1.74,2.6.59,4.38,1.11,5.35,1.55,1.41.65,2.45,1.48,3.12,2.48s1.01,2.16,1.01,3.46-.37,2.52-1.1,3.66c-.74,1.15-1.79,2.04-3.17,2.67-1.38.64-2.93.96-4.66.96-2.19,0-4.02-.32-5.5-.96-1.48-.64-2.64-1.61-3.48-2.9-.84-1.29-1.28-2.75-1.33-4.38Z"/>
    <path class="st4" d="M1628.4,478.89v-24.34h3.2v21.47h11.9v2.87h-15.1Z"/>
    <path class="st4" d="M1651.33,453.06v-3.72h3.68v3.72h-3.68ZM1651.56,478.89v-24.34h3.2v24.34h-3.2Z"/>
    <path class="st4" d="M1663.98,478.89v-24.34h3.2v12.07l12-12.07h4.33l-10.14,9.86,10.58,14.48h-4.22l-8.6-12.32-3.96,3.89v8.44h-3.2Z"/>
  </g>
  <path class="st4" d="M1258.88,389.19c11.95.02,23.9.04,35.85.06-1.92,5.89-4.19,12.13-6.88,18.63-2.3,5.57-4.68,10.77-7.07,15.61h-21.97c.02-11.43.04-22.87.06-34.3Z"/>
  <path class="st4" d="M1144.11,301.33c17.48.05,34.96.09,52.43.14-14.26,20.36-28.53,40.71-42.79,61.07-14.44-.02-28.87-.04-43.31-.06,2.41-10.1,4.81-20.19,7.22-30.29,8.82-10.29,17.63-20.58,26.45-30.87Z"/>
  <path class="st0" d="M1090.23,404.41h10.46c-3.45,7.26-6.9,14.52-10.35,21.78-.04-7.26-.07-14.52-.11-21.78Z"/>
  <polygon class="st3" points="1126.23 267.26 1046.12 403.89 1088.44 403.95 1046.47 515.9 1149.17 369.04 1102.21 369.04 1126.23 267.26"/>
  <path class="st4" d="M1343.6,316.03c-1.14-16.53-4.32-25.59-5.82-29.49-1.49-3.9-10.22-25.95-30.4-42.55-45.2-37.19-111.74-17.29-125.79-13.09-37.6,11.24-63.64,33.1-79.1,49.32,31.92-22.28,60.97-31.54,79.1-35.76,29.32-6.83,46.48-4.31,52.37-3.27,9.01,1.59,25.56,4.71,41.78,17.44,16.08,12.62,23.05,27.78,26.02,34.46,12.21,27.4,8.26,52.87,5.14,72.95-2.12,13.7-6.89,34.28-18.8,57.5,12.34-.15,24.69-.3,37.03-.45,9.94-24.79,14.71-46.92,16.95-64.66,1.8,1.18,3.55,2.38,5.22,3.6,2.88-6.77,5.84-13.59,8.88-20.47,2.13-4.82,4.27-9.58,6.41-14.3-4.81-3.54-11.16-7.59-19.01-11.22Z"/>
  <path class="st1" d="M1125.84,268.18c-26.58,45.24-53.15,90.48-79.73,135.72,13.61.09,27.23.17,40.84.26-13.3,36.89-26.59,73.77-39.89,110.66l64.07-127.56h-36.48l51.19-119.08Z"/>
  <path class="st4" d="M1375.25,389.3c-24.5,0-49,.01-73.49.02-1.37,4.71-3.02,9.71-5.02,14.92-2.73,7.14-5.68,13.58-8.61,19.29l51.96-.68c-19.18,45.71-76.7,38.29-76.7,38.29l-19.4,21.84c-8.39,8.6-16.33,15.75-23.32,21.57-13.38,11.16-29.46,24.38-53.85,35.62-15.38,7.09-32.65,15.05-56.95,16.45-11.77.68-39.99,1.93-68.09-15.44-15.17-9.38-24.78-20.76-30.11-28.14,4.39,10.19,16.28,33.85,42.52,48.89,18.77,10.76,36.07,12.06,49.36,12.91,47.36,3.03,83.97-16.88,103.53-27.84,16.15-9.05,39.94-24.9,63.19-51.51,121.63-7.9,104.99-106.21,104.99-106.21Z"/>
  <path class="st4" d="M1255.05,459.23c-32.41-12.83-49.5-46.8-41.91-76.12,8.87-34.31,50.12-56.78,88.9-42.13.68-5.09,1.08-11.79.22-19.54-.77-6.88-2.31-12.68-3.86-17.18-53.82-13.8-107.89,17.91-121.6,67.11-12.13,43.53,9.67,92.38,53.26,114.09,4.31-3.34,9.11-7.53,13.99-12.71,4.46-4.73,8.08-9.35,11-13.51Z"/>
  <path class="st4" d="M1078.06,482.35c.36.6.94,1.35,1.86,1.86.13.07.26.14.39.19-.75-.68-1.5-1.37-2.25-2.05-.16,3.36-.31,6.72-.47,10.08h42.64l-3.22-.86c1.15.31,2.23.59,3.22.86-.36-22.96-.73-45.92-1.09-68.88-13.69,19.6-27.39,39.2-41.08,58.8ZM1113.5,490.63c.87.23,1.72.46,2.54.68l-2.54-.68ZM1083.18,482.56c.92.25,1.94.52,3.02.8l-3.02-.8ZM1089.59,484.27c.79.21,1.6.43,2.43.65l-2.43-.65ZM1093.51,485.31c3.26.87,6.74,1.8,10.2,2.71l-10.2-2.71ZM1110.08,489.72c.9.24,1.78.47,2.64.7l-2.64-.7Z"/>
  <path class="st4" d="M1055.21,301.35c-17.56.04-35.12.08-52.67.11,17.21,24.7,34.42,49.41,51.64,74.11,4.89-7.6,9.8-15.44,14.69-23.52,4.1-6.76,8.04-13.44,11.83-20.04-8.5-10.22-17-20.44-25.49-30.67Z"/>
  <g>
    <path class="st4" d="M199.18,575.99h13.2l7.75,12.97,7.76-12.97h13.13l-14.95,22.35v16.11h-11.91v-16.11l-14.98-22.35Z"/>
    <path class="st4" d="M242.63,575.99h11.91v38.46h-11.91v-38.46Z"/>
    <path class="st4" d="M260.38,575.99h11.88v28.99h18.55v9.47h-30.43v-38.46Z"/>
    <path class="st4" d="M293.68,575.99h17.65c3.48,0,6.29.47,8.43,1.42,2.14.94,3.91,2.3,5.31,4.07,1.4,1.77,2.41,3.82,3.04,6.16.63,2.34.94,4.83.94,7.45,0,4.11-.47,7.3-1.4,9.56s-2.23,4.16-3.9,5.69c-1.66,1.53-3.45,2.55-5.35,3.06-2.61.7-4.97,1.05-7.08,1.05h-17.65v-38.46ZM305.57,584.7v21.01h2.91c2.48,0,4.25-.28,5.3-.83s1.87-1.51,2.47-2.89c.59-1.37.89-3.6.89-6.68,0-4.08-.67-6.86-1.99-8.37-1.33-1.5-3.53-2.26-6.61-2.26h-2.96Z"/>
    <path class="st4" d="M333.1,575.99h11.91v38.46h-11.91v-38.46Z"/>
    <path class="st4" d="M349.88,575.99h33.63v7.69l-21.59,22.51h22.37v8.26h-36.49v-7.97l21.36-22.27h-19.29v-8.21Z"/>
    <path class="st4" d="M402.17,575.99h31.85v8.21h-19.94v6.11h18.49v7.84h-18.49v7.58h20.51v8.71h-32.42v-38.46Z"/>
    <path class="st4" d="M438.3,575.99h11.88v28.99h18.55v9.47h-30.43v-38.46Z"/>
    <path class="st4" d="M471.42,575.99h31.85v8.21h-19.94v6.11h18.49v7.84h-18.49v7.58h20.51v8.71h-32.42v-38.46Z"/>
    <path class="st4" d="M507.61,575.99h11.88v14.53l12.45-14.53h15.8l-14.03,14.52,14.66,23.94h-14.63l-8.11-15.82-6.14,6.43v9.38h-11.88v-38.46Z"/>
    <path class="st4" d="M546.92,575.99h36.12v9.5h-12.12v28.96h-11.88v-28.96h-12.12v-9.5Z"/>
    <path class="st4" d="M585.89,614.45v-38.46h19.81c3.67,0,6.48.31,8.42.94,1.94.63,3.51,1.8,4.7,3.5,1.19,1.71,1.78,3.78,1.78,6.23,0,2.13-.45,3.97-1.36,5.52s-2.16,2.8-3.75,3.76c-1.01.61-2.41,1.12-4.17,1.52,1.42.47,2.45.95,3.09,1.42.44.32,1.07.99,1.9,2.02.83,1.03,1.38,1.83,1.66,2.39l5.75,11.14h-13.43l-6.35-11.75c-.8-1.52-1.52-2.51-2.15-2.96-.86-.59-1.83-.89-2.91-.89h-1.05v15.61h-11.94ZM597.83,591.57h5.01c.54,0,1.59-.17,3.15-.53.79-.16,1.43-.56,1.93-1.21.5-.65.75-1.39.75-2.23,0-1.24-.39-2.19-1.18-2.86-.79-.67-2.27-1-4.43-1h-5.22v7.82Z"/>
    <path class="st4" d="M625.31,575.99h11.91v38.46h-11.91v-38.46ZM627.23,565.79h8.24v7.87h-8.24v-7.87Z"/>
    <path class="st4" d="M643.11,575.99h11.88v14.53l12.45-14.53h15.8l-14.03,14.52,14.66,23.94h-14.63l-8.11-15.82-6.14,6.43v9.38h-11.88v-38.46Z"/>
  </g>
  <g>
    <path class="st4" d="M1411.99,307.21h19.66l11.54,19.32,11.56-19.32h19.55l-22.27,33.28v23.98h-17.73v-23.98l-22.3-33.28Z"/>
    <path class="st4" d="M1476.7,307.21h17.73v57.27h-17.73v-57.27Z"/>
    <path class="st4" d="M1503.13,307.21h17.7v43.16h27.62v14.1h-45.31v-57.27Z"/>
    <path class="st4" d="M1552.72,307.21h26.29c5.18,0,9.37.7,12.56,2.11,3.19,1.41,5.83,3.42,7.91,6.05,2.08,2.63,3.59,5.69,4.53,9.18.94,3.49,1.41,7.19,1.41,11.09,0,6.12-.7,10.87-2.09,14.24-1.39,3.37-3.33,6.2-5.8,8.48-2.47,2.28-5.13,3.8-7.97,4.55-3.88,1.04-7.4,1.56-10.55,1.56h-26.29v-57.27ZM1570.42,320.18v31.29h4.34c3.7,0,6.33-.41,7.89-1.23s2.79-2.25,3.67-4.3c.88-2.04,1.33-5.36,1.33-9.94,0-6.07-.99-10.22-2.97-12.46-1.98-2.24-5.26-3.36-9.84-3.36h-4.41Z"/>
    <path class="st4" d="M1611.42,307.21h17.73v57.27h-17.73v-57.27Z"/>
    <path class="st4" d="M1636.4,307.21h50.08v11.45l-32.15,33.52h33.32v12.3h-54.34v-11.88l31.81-33.16h-28.72v-12.23Z"/>
    <path class="st4" d="M1415.66,389.46h30.59v7.89h-19.15v5.87h17.76v7.53h-17.76v7.28h19.7v8.37h-31.14v-36.94Z"/>
    <path class="st4" d="M1450.37,389.46h11.41v27.84h17.81v9.1h-29.23v-36.94Z"/>
    <path class="st4" d="M1482.18,389.46h30.59v7.89h-19.15v5.87h17.76v7.53h-17.76v7.28h19.7v8.37h-31.14v-36.94Z"/>
    <path class="st4" d="M1516.94,389.46h11.41v13.96l11.96-13.96h15.18l-13.48,13.94,14.08,23h-14.06l-7.79-15.19-5.9,6.18v9.01h-11.41v-36.94Z"/>
    <path class="st4" d="M1554.7,389.46h34.69v9.12h-11.64v27.82h-11.41v-27.82h-11.64v-9.12Z"/>
    <path class="st4" d="M1592.13,426.4v-36.94h19.02c3.53,0,6.22.3,8.09.91,1.86.6,3.37,1.73,4.51,3.36s1.71,3.63,1.71,5.98c0,2.05-.44,3.82-1.31,5.3-.87,1.49-2.08,2.69-3.6,3.62-.97.59-2.31,1.08-4.01,1.46,1.36.45,2.35.91,2.97,1.36.42.3,1.03.95,1.83,1.94.8.99,1.33,1.76,1.6,2.29l5.53,10.7h-12.9l-6.1-11.29c-.77-1.46-1.46-2.41-2.07-2.85-.82-.57-1.76-.86-2.8-.86h-1.01v14.99h-11.46ZM1603.6,404.43h4.81c.52,0,1.53-.17,3.02-.5.76-.15,1.37-.54,1.85-1.16.48-.62.72-1.33.72-2.14,0-1.19-.38-2.11-1.13-2.75-.76-.64-2.18-.96-4.26-.96h-5.01v7.51Z"/>
    <path class="st4" d="M1629.99,389.46h11.44v36.94h-11.44v-36.94ZM1631.83,379.66h7.91v7.56h-7.91v-7.56Z"/>
    <path class="st4" d="M1647.09,389.46h11.41v13.96l11.96-13.96h15.18l-13.48,13.94,14.08,23h-14.06l-7.79-15.19-5.9,6.18v9.01h-11.41v-36.94Z"/>
  </g>
</svg>