<?xml version="1.0" encoding="UTF-8"?>
<svg id="Layer_1" xmlns="http://www.w3.org/2000/svg" xmlns:xlink="http://www.w3.org/1999/xlink" version="1.1" viewBox="0 0 703.27 375.84">
  <!-- Generator: Adobe Illustrator 30.3.0, SVG Export Plug-In . SVG Version: 2.1.3 Build 182)  -->
  <defs>
    <style>
      .st0 {
        fill: #d39e2d;
      }

      .st1 {
        fill: url(#Adsız_degrade);
      }

      .st2 {
        fill: #f0bb25;
      }

      .st3 {
        fill: #fff;
      }
    </style>
    <linearGradient id="Adsız_degrade" data-name="Adsız degrade" x1="95.5" y1="171.13" x2="105.96" y2="171.13" gradientTransform="translate(0 374.97) scale(1 -1)" gradientUnits="userSpaceOnUse">
      <stop offset="0" stop-color="#2c2c2c"/>
      <stop offset="1" stop-color="#373737"/>
    </linearGradient>
  </defs>
  <rect class="st2" x="420.85" y="229.65" width="270.88" height="48.71"/>
  <g>
    <path class="st3" d="M423.95,267.43v-24.34h4.81l5.72,17.24c.53,1.61.91,2.81,1.15,3.6.27-.89.7-2.19,1.29-3.9l5.79-16.94h4.3v24.34h-3.08v-20.38l-7.02,20.38h-2.88l-6.99-20.72v20.72h-3.09Z"/>
    <path class="st3" d="M471.74,243.09h3.2v14.07c0,2.45-.27,4.39-.82,5.83s-1.54,2.61-2.97,3.51c-1.43.9-3.32,1.35-5.65,1.35s-4.12-.39-5.55-1.18-2.47-1.92-3.08-3.41c-.62-1.49-.92-3.52-.92-6.1v-14.07h3.2v14.05c0,2.12.19,3.67.58,4.67s1.06,1.77,2.01,2.32c.95.54,2.11.81,3.49.81,2.35,0,4.03-.54,5.03-1.61s1.5-3.14,1.5-6.19v-14.05h-.02ZM460.76,241.6v-3.4h3.1v3.4h-3.1ZM466.91,241.6v-3.4h3.1v3.4h-3.1Z"/>
    <path class="st3" d="M484.07,267.43v-24.34h3.2v10h12.56v-10h3.2v24.34h-3.2v-11.47h-12.56v11.47h-3.2Z"/>
    <path class="st3" d="M512.13,267.43v-24.34h17.47v2.87h-14.27v7.46h13.37v2.86h-13.37v8.29h14.83v2.87h-18.03,0Z"/>
    <path class="st3" d="M538.26,267.43v-24.34h3.28l12.69,19.11v-19.11h3.07v24.34h-3.28l-12.69-19.13v19.13h-3.07Z"/>
    <path class="st3" d="M566.39,267.43v-24.34h8.32c1.88,0,3.31.12,4.3.35,1.38.32,2.57.9,3.54,1.74,1.28,1.08,2.23,2.47,2.86,4.16s.95,3.62.95,5.79c0,1.85-.21,3.49-.64,4.92s-.98,2.61-1.65,3.54c-.67.94-1.4,1.67-2.2,2.21s-1.76.94-2.88,1.22c-1.13.28-2.42.42-3.88.42h-8.72,0ZM569.58,264.56h5.16c1.59,0,2.84-.15,3.75-.45s1.63-.72,2.17-1.26c.76-.76,1.35-1.79,1.77-3.08.42-1.29.63-2.85.63-4.69,0-2.55-.42-4.5-1.25-5.87s-1.84-2.28-3.02-2.75c-.86-.33-2.24-.5-4.14-.5h-5.08v18.6h.01Z"/>
    <path class="st3" d="M594.79,241.6v-3.72h3.68v3.72h-3.68ZM595.02,267.43v-24.34h3.2v24.34h-3.2Z"/>
    <path class="st3" d="M606.48,259.61l3.02-.27c.14,1.22.47,2.22,1,3,.52.78,1.33,1.41,2.43,1.89s2.33.72,3.71.72c1.22,0,2.3-.18,3.23-.55s1.63-.87,2.08-1.5c.46-.64.68-1.33.68-2.08s-.22-1.43-.66-2-1.16-1.05-2.17-1.44c-.65-.25-2.08-.65-4.3-1.19s-3.77-1.04-4.66-1.52c-1.15-.61-2.01-1.36-2.58-2.27-.57-.9-.85-1.91-.85-3.03,0-1.23.35-2.38,1.04-3.45s1.7-1.88,3.03-2.43,2.81-.83,4.43-.83c1.79,0,3.37.29,4.74.87s2.42,1.44,3.16,2.57,1.13,2.41,1.19,3.84l-3.07.23c-.17-1.54-.72-2.7-1.67-3.49-.95-.79-2.35-1.18-4.21-1.18s-3.34.36-4.23,1.07-1.33,1.58-1.33,2.58c0,.88.31,1.59.94,2.16.62.56,2.22,1.14,4.82,1.74,2.6.59,4.38,1.11,5.35,1.55,1.41.65,2.45,1.48,3.12,2.48s1.01,2.16,1.01,3.46-.37,2.52-1.1,3.66c-.74,1.15-1.79,2.04-3.17,2.67-1.38.64-2.93.96-4.66.96-2.19,0-4.02-.32-5.5-.96-1.48-.64-2.64-1.61-3.48-2.9-.84-1.29-1.28-2.75-1.33-4.38v.02Z"/>
    <path class="st3" d="M633.67,267.43v-24.34h3.2v21.47h11.9v2.87h-15.1Z"/>
    <path class="st3" d="M656.6,241.6v-3.72h3.68v3.72h-3.68ZM656.83,267.43v-24.34h3.2v24.34h-3.2Z"/>
    <path class="st3" d="M669.25,267.43v-24.34h3.2v12.07l12-12.07h4.33l-10.14,9.86,10.58,14.48h-4.22l-8.6-12.32-3.96,3.89v8.44h-3.2,0Z"/>
  </g>
  <path class="st3" d="M264.15,177.73c11.95.02,23.9.04,35.85.06-1.92,5.89-4.19,12.13-6.88,18.63-2.3,5.57-4.68,10.77-7.07,15.61h-21.97c.02-11.43.04-22.87.06-34.3h.01Z"/>
  <path class="st3" d="M149.38,89.87c17.48.05,34.96.09,52.43.14-14.26,20.36-28.53,40.71-42.79,61.07-14.44-.02-28.87-.04-43.31-.06,2.41-10.1,4.81-20.19,7.22-30.29,8.82-10.29,17.63-20.58,26.45-30.87h0Z"/>
  <path class="st1" d="M95.5,192.95h10.46c-3.45,7.26-6.9,14.52-10.35,21.78-.04-7.26-.07-14.52-.11-21.78Z"/>
  <polygon class="st2" points="131.5 55.8 51.39 192.43 93.71 192.49 51.74 304.44 154.44 157.58 107.48 157.58 131.5 55.8"/>
  <path class="st3" d="M348.87,104.57c-1.14-16.53-4.32-25.59-5.82-29.49-1.49-3.9-10.22-25.95-30.4-42.55-45.2-37.19-111.74-17.29-125.79-13.09-37.6,11.24-63.64,33.1-79.1,49.32,31.92-22.28,60.97-31.54,79.1-35.76,29.32-6.83,46.48-4.31,52.37-3.27,9.01,1.59,25.56,4.71,41.78,17.44,16.08,12.62,23.05,27.78,26.02,34.46,12.21,27.4,8.26,52.87,5.14,72.95-2.12,13.7-6.89,34.28-18.8,57.5,12.34-.15,24.69-.3,37.03-.45,9.94-24.79,14.71-46.92,16.95-64.66,1.8,1.18,3.55,2.38,5.22,3.6,2.88-6.77,5.84-13.59,8.88-20.47,2.13-4.82,4.27-9.58,6.41-14.3-4.81-3.54-11.16-7.59-19.01-11.22h.02Z"/>
  <path class="st0" d="M131.11,56.72c-26.58,45.24-53.15,90.48-79.73,135.72,13.61.09,27.23.17,40.84.26-13.3,36.89-26.59,73.77-39.89,110.66l64.07-127.56h-36.48l51.19-119.08h0Z"/>
  <path class="st3" d="M380.52,177.84c-24.5,0-49,.01-73.49.02-1.37,4.71-3.02,9.71-5.02,14.92-2.73,7.14-5.68,13.58-8.61,19.29l51.96-.68c-19.18,45.71-76.7,38.29-76.7,38.29l-19.4,21.84c-8.39,8.6-16.33,15.75-23.32,21.57-13.38,11.16-29.46,24.38-53.85,35.62-15.38,7.09-32.65,15.05-56.95,16.45-11.77.68-39.99,1.93-68.09-15.44-15.17-9.38-24.78-20.76-30.11-28.14,4.39,10.19,16.28,33.85,42.52,48.89,18.77,10.76,36.07,12.06,49.36,12.91,47.36,3.03,83.97-16.88,103.53-27.84,16.15-9.05,39.94-24.9,63.19-51.51,121.63-7.9,104.99-106.21,104.99-106.21v.02Z"/>
  <path class="st3" d="M260.32,247.77c-32.41-12.83-49.5-46.8-41.91-76.12,8.87-34.31,50.12-56.78,88.9-42.13.68-5.09,1.08-11.79.22-19.54-.77-6.88-2.31-12.68-3.86-17.18-53.82-13.8-107.89,17.91-121.6,67.11-12.13,43.53,9.67,92.38,53.26,114.09,4.31-3.34,9.11-7.53,13.99-12.71,4.46-4.73,8.08-9.35,11-13.51h0Z"/>
  <path class="st3" d="M83.33,270.89c.36.6.94,1.35,1.86,1.86.13.07.26.14.39.19-.75-.68-1.5-1.37-2.25-2.05-.16,3.36-.31,6.72-.47,10.08h42.64l-3.22-.86c1.15.31,2.23.59,3.22.86-.36-22.96-.73-45.92-1.09-68.88-13.69,19.6-27.39,39.2-41.08,58.8h0ZM118.77,279.17c.87.23,1.72.46,2.54.68l-2.54-.68ZM88.45,271.1c.92.25,1.94.52,3.02.8l-3.02-.8ZM94.86,272.81c.79.21,1.6.43,2.43.65l-2.43-.65ZM98.78,273.85c3.26.87,6.74,1.8,10.2,2.71l-10.2-2.71ZM115.35,278.26c.9.24,1.78.47,2.64.7l-2.64-.7Z"/>
  <path class="st3" d="M60.48,89.89c-17.56.04-35.12.08-52.67.11,17.21,24.7,34.42,49.41,51.64,74.11,4.89-7.6,9.8-15.44,14.69-23.52,4.1-6.76,8.04-13.44,11.83-20.04-8.5-10.22-17-20.44-25.49-30.67h0Z"/>
  <g>
    <path class="st3" d="M417.26,95.75h19.66l11.54,19.32,11.56-19.32h19.55l-22.27,33.28v23.98h-17.73v-23.98l-22.3-33.28h0Z"/>
    <path class="st3" d="M481.97,95.75h17.73v57.27h-17.73v-57.27Z"/>
    <path class="st3" d="M508.4,95.75h17.7v43.16h27.62v14.1h-45.31v-57.27h-.01Z"/>
    <path class="st3" d="M557.99,95.75h26.29c5.18,0,9.37.7,12.56,2.11,3.19,1.41,5.83,3.42,7.91,6.05,2.08,2.63,3.59,5.69,4.53,9.18s1.41,7.19,1.41,11.09c0,6.12-.7,10.87-2.09,14.24s-3.33,6.2-5.8,8.48-5.13,3.8-7.97,4.55c-3.88,1.04-7.4,1.56-10.55,1.56h-26.29v-57.27h0ZM575.69,108.72v31.29h4.34c3.7,0,6.33-.41,7.89-1.23s2.79-2.25,3.67-4.3c.88-2.04,1.33-5.36,1.33-9.94,0-6.07-.99-10.22-2.97-12.46s-5.26-3.36-9.84-3.36h-4.42Z"/>
    <path class="st3" d="M616.69,95.75h17.73v57.27h-17.73v-57.27Z"/>
    <path class="st3" d="M641.67,95.75h50.08v11.45l-32.15,33.52h33.32v12.3h-54.34v-11.88l31.81-33.16h-28.72v-12.23h0Z"/>
    <path class="st3" d="M420.93,178h30.59v7.89h-19.15v5.87h17.76v7.53h-17.76v7.28h19.7v8.37h-31.14v-36.94Z"/>
    <path class="st3" d="M455.64,178h11.41v27.84h17.81v9.1h-29.23v-36.94h.01Z"/>
    <path class="st3" d="M487.45,178h30.59v7.89h-19.15v5.87h17.76v7.53h-17.76v7.28h19.7v8.37h-31.14v-36.94Z"/>
    <path class="st3" d="M522.21,178h11.41v13.96l11.96-13.96h15.18l-13.48,13.94,14.08,23h-14.06l-7.79-15.19-5.9,6.18v9.01h-11.41v-36.94h0Z"/>
    <path class="st3" d="M559.97,178h34.69v9.12h-11.64v27.82h-11.41v-27.82h-11.64v-9.12Z"/>
    <path class="st3" d="M597.4,214.94v-36.94h19.02c3.53,0,6.22.3,8.09.91,1.86.6,3.37,1.73,4.51,3.36s1.71,3.63,1.71,5.98c0,2.05-.44,3.82-1.31,5.3-.87,1.49-2.08,2.69-3.6,3.62-.97.59-2.31,1.08-4.01,1.46,1.36.45,2.35.91,2.97,1.36.42.3,1.03.95,1.83,1.94s1.33,1.76,1.6,2.29l5.53,10.7h-12.9l-6.1-11.29c-.77-1.46-1.46-2.41-2.07-2.85-.82-.57-1.76-.86-2.8-.86h-1.01v14.99h-11.46v.03ZM608.87,192.97h4.81c.52,0,1.53-.17,3.02-.5.76-.15,1.37-.54,1.85-1.16s.72-1.33.72-2.14c0-1.19-.38-2.11-1.13-2.75-.76-.64-2.18-.96-4.26-.96h-5.01v7.51h0Z"/>
    <path class="st3" d="M635.26,178h11.44v36.94h-11.44v-36.94ZM637.1,168.2h7.91v7.56h-7.91v-7.56Z"/>
    <path class="st3" d="M652.36,178h11.41v13.96l11.96-13.96h15.18l-13.48,13.94,14.08,23h-14.06l-7.79-15.19-5.9,6.18v9.01h-11.41v-36.94h0Z"/>
  </g>
</svg>